<svg width="7" height="8" viewBox="0 0 7 8" fill="none" xmlns="http://www.w3.org/2000/svg">
<path d="M6.55952 2.81963C6.3325 2.9592 6.03083 2.89544 5.88561 2.6772C5.41433 1.96849 4.61158 1.5454 3.73824 1.5454C2.33384 1.5454 1.19131 2.64435 1.19131 3.99512C1.19131 5.34589 2.33384 6.44483 3.73824 6.44483C4.58566 6.44483 5.3753 6.04093 5.85059 5.36439C6.0014 5.14975 6.30458 5.09323 6.52797 5.23833C6.75119 5.38337 6.8099 5.67508 6.65904 5.88983C6.00216 6.82502 4.9102 7.3833 3.73824 7.3833C1.79583 7.3833 0.215576 5.8634 0.215576 3.99512C0.215576 2.12684 1.79583 0.606934 3.73824 0.606934C4.94603 0.606934 6.05609 1.19181 6.70761 2.17152C6.85278 2.38981 6.78648 2.67996 6.55952 2.81963Z" fill="black"/>
</svg>
